<mxfile host="app.diagrams.net" agent="Mozilla/5.0 (Windows NT 10.0; Win64; x64) AppleWebKit/537.36 (KHTML, like Gecko) Chrome/133.0.0.0 Safari/537.36" version="26.0.15">
  <diagram name="第 1 页" id="gO7UvFo5E6HaeWAo862N">
    <mxGraphModel dx="1050" dy="530" grid="1" gridSize="10" guides="1" tooltips="1" connect="1" arrows="1" fold="1" page="1" pageScale="1" pageWidth="827" pageHeight="1169" math="0" shadow="0">
      <root>
        <mxCell id="0" />
        <mxCell id="1" parent="0" />
        <mxCell id="ydWofeTKWRSt3Wkl_L-8-1" value="订单" style="rounded=0;whiteSpace=wrap;html=1;" vertex="1" parent="1">
          <mxGeometry x="280" y="240" width="340" height="250" as="geometry" />
        </mxCell>
        <mxCell id="ydWofeTKWRSt3Wkl_L-8-13" style="edgeStyle=orthogonalEdgeStyle;rounded=0;orthogonalLoop=1;jettySize=auto;html=1;entryX=0;entryY=0.5;entryDx=0;entryDy=0;" edge="1" parent="1" source="ydWofeTKWRSt3Wkl_L-8-2" target="ydWofeTKWRSt3Wkl_L-8-11">
          <mxGeometry relative="1" as="geometry" />
        </mxCell>
        <mxCell id="ydWofeTKWRSt3Wkl_L-8-2" value="物资A" style="rounded=0;whiteSpace=wrap;html=1;" vertex="1" parent="1">
          <mxGeometry x="280" y="240" width="340" height="100" as="geometry" />
        </mxCell>
        <mxCell id="ydWofeTKWRSt3Wkl_L-8-3" value="仓库库存" style="rounded=0;whiteSpace=wrap;html=1;" vertex="1" parent="1">
          <mxGeometry x="720" y="120" width="220" height="160" as="geometry" />
        </mxCell>
        <mxCell id="ydWofeTKWRSt3Wkl_L-8-4" value="仓库订单" style="rounded=0;whiteSpace=wrap;html=1;" vertex="1" parent="1">
          <mxGeometry x="730" y="360" width="220" height="150" as="geometry" />
        </mxCell>
        <mxCell id="ydWofeTKWRSt3Wkl_L-8-8" style="edgeStyle=orthogonalEdgeStyle;rounded=0;orthogonalLoop=1;jettySize=auto;html=1;entryX=0;entryY=0.6;entryDx=0;entryDy=0;entryPerimeter=0;" edge="1" parent="1" source="ydWofeTKWRSt3Wkl_L-8-2" target="ydWofeTKWRSt3Wkl_L-8-4">
          <mxGeometry relative="1" as="geometry">
            <Array as="points">
              <mxPoint x="660" y="290" />
              <mxPoint x="660" y="450" />
            </Array>
          </mxGeometry>
        </mxCell>
        <mxCell id="ydWofeTKWRSt3Wkl_L-8-9" value="" style="endArrow=classic;startArrow=classic;html=1;rounded=0;exitX=0.5;exitY=0;exitDx=0;exitDy=0;" edge="1" parent="1" source="ydWofeTKWRSt3Wkl_L-8-4">
          <mxGeometry width="50" height="50" relative="1" as="geometry">
            <mxPoint x="790" y="330" as="sourcePoint" />
            <mxPoint x="840" y="280" as="targetPoint" />
          </mxGeometry>
        </mxCell>
        <mxCell id="ydWofeTKWRSt3Wkl_L-8-10" value="仓库库存" style="rounded=0;whiteSpace=wrap;html=1;" vertex="1" parent="1">
          <mxGeometry x="730" y="560" width="220" height="160" as="geometry" />
        </mxCell>
        <mxCell id="ydWofeTKWRSt3Wkl_L-8-11" value="仓库订单" style="rounded=0;whiteSpace=wrap;html=1;" vertex="1" parent="1">
          <mxGeometry x="740" y="800" width="220" height="150" as="geometry" />
        </mxCell>
        <mxCell id="ydWofeTKWRSt3Wkl_L-8-12" value="" style="endArrow=classic;startArrow=classic;html=1;rounded=0;exitX=0.5;exitY=0;exitDx=0;exitDy=0;" edge="1" parent="1" source="ydWofeTKWRSt3Wkl_L-8-11">
          <mxGeometry width="50" height="50" relative="1" as="geometry">
            <mxPoint x="800" y="770" as="sourcePoint" />
            <mxPoint x="850" y="720" as="targetPoint" />
          </mxGeometry>
        </mxCell>
      </root>
    </mxGraphModel>
  </diagram>
</mxfile>
